<?xml version="1.0" encoding="UTF-8" standalone="no"?>
<svg
   xmlns:dc="http://purl.org/dc/elements/1.1/"
   xmlns:cc="http://creativecommons.org/ns#"
   xmlns:rdf="http://www.w3.org/1999/02/22-rdf-syntax-ns#"
   xmlns:svg="http://www.w3.org/2000/svg"
   xmlns="http://www.w3.org/2000/svg"
   id="svg8"
   version="1.1"
   viewBox="0 0 135.46666 135.46668"
   height="512"
   width="512">
  <defs
     id="defs2" />
  <metadata
     id="metadata5">
    <rdf:RDF>
      <cc:Work
         rdf:about="">
        <dc:format>image/svg+xml</dc:format>
        <dc:type
           rdf:resource="http://purl.org/dc/dcmitype/StillImage" />
        <dc:title></dc:title>
      </cc:Work>
    </rdf:RDF>
  </metadata>
  <g
     transform="translate(0,-161.53329)"
     id="layer1">
    <path
       id="rect5668"
       d="M 33.866666,178.46662 C 15.104534,178.46662 1.1000003e-6,193.57115 1.1000003e-6,212.33328 v 16.93334 C 1.1000003e-6,248.02875 15.104534,263.13328 33.866666,263.13328 H 101.6 c 18.76213,0 33.86667,-15.10453 33.86667,-33.86666 v -16.93334 c 0,-18.76213 -15.10454,-33.86666 -33.86667,-33.86666 z m 2.116667,33.86666 A 10.583333,10.583333 0 0 1 46.566666,222.91662 10.583333,10.583333 0 0 1 35.983333,233.49995 10.583333,10.583333 0 0 1 25.4,222.91662 10.583333,10.583333 0 0 1 35.983333,212.33328 Z m 33.866666,0 a 10.583333,10.583333 0 0 1 10.583333,10.58334 10.583333,10.583333 0 0 1 -10.583333,10.58333 10.583333,10.583333 0 0 1 -10.583333,-10.58333 10.583333,10.583333 0 0 1 10.583333,-10.58334 z m 33.866671,0 A 10.583333,10.583333 0 0 1 114.3,222.91662 10.583333,10.583333 0 0 1 103.71667,233.49995 10.583333,10.583333 0 0 1 93.133332,222.91662 10.583333,10.583333 0 0 1 103.71667,212.33328 Z"
       style="opacity:1;vector-effect:none;fill:#ffffff;fill-opacity:1;stroke:none;stroke-width:1.46499979;stroke-linecap:butt;stroke-linejoin:miter;stroke-miterlimit:4;stroke-dasharray:1.46499996, 1.46499996;stroke-dashoffset:0;stroke-opacity:1;paint-order:normal" />
    <path
       id="path5670"
       d="M 21.166667,237.73329 16.933333,280.06662 101.6,237.73329"
       style="fill:#ffffff;fill-opacity:1;stroke:none;stroke-width:0.26458332px;stroke-linecap:butt;stroke-linejoin:miter;stroke-opacity:1" />
  </g>
</svg>
