<?xml version="1.0" encoding="UTF-8" standalone="no"?>
<svg
   xmlns:dc="http://purl.org/dc/elements/1.1/"
   xmlns:cc="http://creativecommons.org/ns#"
   xmlns:rdf="http://www.w3.org/1999/02/22-rdf-syntax-ns#"
   xmlns:svg="http://www.w3.org/2000/svg"
   xmlns="http://www.w3.org/2000/svg"
   id="svg8"
   version="1.1"
   viewBox="0 0 135.46666 135.46668"
   height="512"
   width="512">
  <defs
     id="defs2" />
  <metadata
     id="metadata5">
    <rdf:RDF>
      <cc:Work
         rdf:about="">
        <dc:format>image/svg+xml</dc:format>
        <dc:type
           rdf:resource="http://purl.org/dc/dcmitype/StillImage" />
        <dc:title></dc:title>
      </cc:Work>
    </rdf:RDF>
  </metadata>
  <g
     transform="translate(0,-161.53329)"
     id="layer1">
    <path
       id="rect5631"
       transform="matrix(0.26458333,0,0,0.26458333,0,161.53329)"
       d="M 256 0 L 176 80 L 228.92383 80 L 228.92383 228.92383 L 80 228.92383 L 80 176 L 0 256 L 80 336 L 80 283.07617 L 228.92383 283.07617 L 228.92383 432 L 176 432 L 256 512 L 336 432 L 283.07617 432 L 283.07617 283.07617 L 432 283.07617 L 432 336 L 512 256 L 432 176 L 432 228.92383 L 283.07617 228.92383 L 283.07617 80 L 336 80 L 256 0 z "
       style="opacity:1;vector-effect:none;fill:#ffffff;fill-opacity:1;stroke:none;stroke-width:5.53700733;stroke-linecap:butt;stroke-linejoin:miter;stroke-miterlimit:4;stroke-dasharray:5.53700761, 5.53700761;stroke-dashoffset:0;stroke-opacity:1;paint-order:normal" />
  </g>
</svg>
